# xmcd CD database file
#
# Track frame offsets:
#	150
#	1596
#	3042
#	11406
#	19770
#	28134
#	36534
#	44898
#	53262
#	61626
#	69990
#	78354
#	86718
#	95082
#	103446
#	111810
#	120174
#	128538
#	136902
#	145266
#	153630
#	161994
#	170358
#	178722
#	187086
#	195450
#	203814
#	212178
#	220542
#	228906
#
# Disc length: 3161 seconds
#
# Revision: 0
# Processed by: cddbd v1.5.2PL0 Copyright (c) Steve Scherf et al.
# Submitted via: CDex 1.51
#
DISCID=910c571e
DTITLE=Santorella - Know before you blow - Clarinet
DYEAR=2010
DGENRE=Jazz
TTITLE0=Tuning Bb
TTITLE1=Tuning A
TTITLE2=Ionan 1
TTITLE3=Ionan 2
TTITLE4=Ionan 3
TTITLE5=Ionan All
TTITLE6=Dorian 1
TTITLE7=Dorian 2
TTITLE8=Dorian 3
TTITLE9=Dorian All
TTITLE10=Phrygian 1
TTITLE11=Phrygian 2
TTITLE12=Phrygian 3
TTITLE13=Phrygian All
TTITLE14=Lydian 1
TTITLE15=Lydian 2
TTITLE16=Lydian 3
TTITLE17=Lydian All
TTITLE18=Mixolydian 1
TTITLE19=Mixolydian 2
TTITLE20=Mixolydian 3
TTITLE21=Mixolydian All
TTITLE22=Aeolian 1
TTITLE23=Aeolian 2
TTITLE24=Aeolian 3
TTITLE25=Aeolian All
TTITLE26=Locrian 1
TTITLE27=Locrian 2
TTITLE28=Locrian 3
TTITLE29=Locrian All
EXTD=YEAR: 2010
EXTT0=
EXTT1=
EXTT2=
EXTT3=
EXTT4=
EXTT5=
EXTT6=
EXTT7=
EXTT8=
EXTT9=
EXTT10=
EXTT11=
EXTT12=
EXTT13=
EXTT14=
EXTT15=
EXTT16=
EXTT17=
EXTT18=
EXTT19=
EXTT20=
EXTT21=
EXTT22=
EXTT23=
EXTT24=
EXTT25=
EXTT26=
EXTT27=
EXTT28=
EXTT29=
PLAYORDER=
